<?xml version="1.0" standalone="no"?>
<!DOCTYPE svg PUBLIC "-//W3C//DTD SVG 20010904//EN"
 "http://www.w3.org/TR/2001/REC-SVG-20010904/DTD/svg10.dtd">
<svg version="1.0" xmlns="http://www.w3.org/2000/svg"
 width="820.000000pt" height="312.000000pt" viewBox="0 0 820.000000 312.000000"
 preserveAspectRatio="xMidYMid meet">
<metadata>
Created by potrace 1.15, written by Peter Selinger 2001-2017
</metadata>
<g transform="translate(0.000000,312.000000) scale(0.100000,-0.100000)"
fill="#000000" stroke="none">
<path d="M1212 2137 c-42 -13 -98 -75 -111 -124 -7 -23 -11 -153 -11 -323 0
-170 4 -300 11 -323 14 -52 69 -111 117 -125 126 -38 252 18 282 126 5 20 10
76 10 125 l0 87 -64 0 -63 0 -5 -92 c-5 -79 -9 -94 -28 -110 -31 -25 -66 -22
-95 7 l-25 24 0 279 c0 267 1 280 21 306 24 31 66 35 98 9 17 -14 23 -33 28
-90 l6 -73 63 0 64 0 0 68 c0 120 -34 187 -115 223 -44 21 -130 23 -183 6z"/>
<path d="M5052 2137 c-42 -13 -98 -75 -111 -124 -7 -23 -11 -153 -11 -323 0
-170 4 -300 11 -323 14 -52 69 -111 117 -125 126 -38 252 18 282 126 5 20 10
76 10 125 l0 87 -64 0 -63 0 -5 -92 c-5 -79 -9 -94 -28 -110 -31 -25 -66 -22
-95 7 l-25 24 0 279 c0 267 1 280 21 306 24 31 66 35 98 9 17 -14 23 -33 28
-90 l6 -73 63 0 64 0 0 68 c0 120 -34 187 -115 223 -44 21 -130 23 -183 6z"/>
<path d="M6765 2131 c-50 -22 -91 -69 -105 -119 -6 -21 -10 -157 -10 -322 0
-165 4 -301 10 -322 24 -83 103 -138 200 -137 98 0 154 30 194 104 20 38 21
52 21 355 0 303 -1 317 -21 355 -12 22 -31 48 -42 58 -52 47 -175 61 -247 28z
m146 -130 l24 -19 0 -292 0 -292 -24 -19 c-34 -27 -75 -24 -100 7 -20 26 -21
39 -21 304 0 265 1 278 21 304 25 31 66 34 100 7z"/>
<path d="M590 1690 l0 -450 70 0 70 0 0 185 0 185 35 0 c49 0 82 -18 95 -53 5
-16 10 -84 10 -151 0 -172 -3 -166 85 -166 l74 0 -10 32 c-5 18 -9 89 -9 157
0 144 -11 191 -55 230 l-31 27 24 18 c43 33 62 91 62 192 0 105 -11 147 -52
190 -41 44 -86 54 -237 54 l-131 0 0 -450z m254 305 c21 -21 29 -73 24 -152
-5 -80 -26 -103 -94 -103 l-44 0 0 135 0 135 49 0 c31 0 55 -6 65 -15z"/>
<path d="M1600 1690 l0 -452 153 4 c175 4 204 14 247 90 l25 43 0 315 0 315
-25 43 c-43 76 -72 86 -247 90 l-153 4 0 -452z m266 299 c18 -20 19 -40 19
-299 0 -325 2 -320 -92 -320 l-53 0 0 320 0 320 53 0 c42 0 58 -5 73 -21z"/>
<path d="M2486 2093 c4 -27 35 -228 69 -448 l61 -400 107 -3 c82 -2 107 0 107
10 1 7 31 210 68 451 l68 437 -65 0 -66 0 -49 -342 c-27 -189 -52 -346 -55
-350 -4 -4 -28 142 -55 325 -26 182 -50 340 -53 350 -4 14 -16 17 -74 17 l-70
0 7 -47z"/>
<path d="M3030 1690 l0 -450 190 0 190 0 0 65 0 65 -120 0 -120 0 0 130 0 130
95 0 95 0 0 65 0 65 -95 0 -95 0 0 125 0 125 120 0 120 0 0 65 0 65 -190 0
-190 0 0 -450z"/>
<path d="M3500 1691 l0 -451 70 0 70 0 0 186 0 187 51 -5 c80 -8 83 -14 90
-201 4 -89 7 -163 8 -164 0 -2 35 -3 77 -3 69 0 75 2 69 18 -4 9 -10 89 -14
177 -6 169 -14 199 -64 234 -18 13 -18 14 12 45 43 45 51 75 51 189 0 124 -18
172 -76 208 -36 22 -51 24 -191 27 l-153 4 0 -451z m260 299 c17 -17 20 -33
20 -110 0 -83 -2 -93 -25 -115 -18 -19 -35 -25 -70 -25 l-45 0 0 135 0 135 50
0 c37 0 55 -5 70 -20z"/>
<path d="M4020 1690 l0 -450 70 0 70 0 0 450 0 450 -70 0 -70 0 0 -450z"/>
<path d="M4260 1690 l0 -450 70 0 70 0 0 185 0 185 90 0 90 0 0 65 0 65 -90 0
-90 0 0 135 0 135 115 0 115 0 0 65 0 65 -185 0 -185 0 0 -450z"/>
<path d="M4700 1690 l0 -450 70 0 70 0 0 450 0 450 -70 0 -70 0 0 -450z"/>
<path d="M5540 2135 c0 -3 -31 -203 -70 -444 -38 -242 -70 -442 -70 -445 0 -3
29 -6 64 -6 l64 0 11 63 c6 35 11 71 11 80 0 15 13 17 89 17 l88 0 7 -57 c13
-107 9 -103 87 -103 38 0 69 4 69 9 0 6 -31 207 -70 447 -38 241 -70 439 -70
441 0 2 -47 3 -105 3 -58 0 -105 -2 -105 -5z m131 -382 c39 -256 42 -233 -37
-233 -60 0 -66 2 -62 18 3 11 18 107 34 215 15 108 30 194 33 192 2 -3 17 -89
32 -192z"/>
<path d="M5920 2075 l0 -65 70 0 70 0 0 -385 0 -385 75 0 75 0 0 385 0 385 70
0 70 0 0 65 0 65 -215 0 -215 0 0 -65z"/>
<path d="M6420 1690 l0 -450 70 0 70 0 0 450 0 450 -70 0 -70 0 0 -450z"/>
<path d="M7170 1690 l0 -450 60 0 60 0 0 317 c0 174 3 314 6 311 3 -3 43 -145
88 -314 l83 -309 72 -3 71 -3 0 451 0 450 -60 0 -60 0 -2 -262 -3 -261 -70
261 -70 262 -87 0 -88 0 0 -450z"/>
</g>
</svg>
