<?xml version="1.0" standalone="no"?>
<!DOCTYPE svg PUBLIC "-//W3C//DTD SVG 20010904//EN"
 "http://www.w3.org/TR/2001/REC-SVG-20010904/DTD/svg10.dtd">
<svg version="1.0" xmlns="http://www.w3.org/2000/svg"
 width="300.000000pt" height="300.000000pt" viewBox="0 0 300.000000 300.000000"
 preserveAspectRatio="xMidYMid meet">
<metadata>
Created by potrace 1.15, written by Peter Selinger 2001-2017
</metadata>
<g transform="translate(0.000000,300.000000) scale(0.100000,-0.100000)"
fill="#000000" stroke="none">
<path d="M793 2765 c-13 -13 -23 -36 -23 -50 0 -14 -4 -25 -10 -25 -5 0 -10
-15 -10 -34 0 -19 -4 -38 -10 -41 -5 -3 -10 -21 -10 -40 0 -19 -4 -37 -10 -40
-5 -3 -10 -21 -10 -40 0 -19 -4 -37 -10 -40 -5 -3 -10 -19 -10 -35 0 -16 -4
-32 -10 -35 -5 -3 -10 -26 -10 -51 0 -24 -4 -44 -10 -44 -5 0 -10 -13 -10 -29
0 -17 -4 -33 -10 -36 -5 -3 -10 -24 -10 -45 0 -21 -4 -42 -10 -45 -5 -3 -10
-19 -10 -36 0 -16 -4 -29 -10 -29 -5 0 -10 -18 -10 -39 0 -22 -4 -43 -10 -46
-5 -3 -10 -22 -10 -41 0 -19 -4 -34 -10 -34 -5 0 -10 -18 -10 -40 0 -22 -4
-40 -10 -40 -5 0 -10 -18 -10 -39 0 -22 -4 -43 -10 -46 -5 -3 -10 -17 -10 -30
0 -13 -4 -27 -10 -30 -5 -3 -10 -24 -10 -45 0 -21 -5 -42 -10 -45 -6 -3 -10
-19 -10 -35 0 -16 -4 -32 -10 -35 -5 -3 -10 -24 -10 -45 0 -21 -4 -42 -10 -45
-5 -3 -10 -19 -10 -35 0 -16 -5 -32 -10 -35 -6 -3 -10 -21 -10 -40 0 -19 -4
-37 -10 -40 -5 -3 -10 -21 -10 -40 0 -19 -4 -37 -10 -40 -5 -3 -10 -22 -10
-41 0 -19 -4 -34 -10 -34 -14 0 -12 -81 3 -113 6 -15 20 -27 30 -27 14 0 17
-9 17 -55 0 -46 4 -60 25 -80 13 -14 33 -25 44 -25 11 0 23 -4 26 -10 3 -5 21
-10 40 -10 19 0 37 -4 40 -10 3 -5 19 -10 36 -10 41 0 37 -23 -11 -70 -22 -21
-40 -46 -40 -54 0 -9 -3 -16 -8 -16 -4 0 -13 -15 -20 -33 -7 -17 -18 -40 -23
-49 -5 -10 -9 -50 -9 -90 0 -61 4 -77 23 -99 27 -32 90 -69 117 -69 10 0 22
-4 25 -10 3 -5 28 -10 55 -10 27 0 52 -4 55 -10 8 -13 352 -13 360 0 3 5 28
10 56 10 27 0 49 5 49 10 0 6 14 10 30 10 17 0 30 5 30 10 0 6 7 10 15 10 21
0 85 62 85 82 0 10 5 18 10 18 6 0 10 20 10 44 0 25 -4 48 -10 51 -5 3 -10 19
-10 36 0 22 5 29 19 29 11 0 23 -4 26 -10 3 -5 21 -10 40 -10 19 0 37 -5 40
-10 3 -5 22 -10 41 -10 19 0 34 -4 34 -10 0 -5 18 -10 39 -10 22 0 43 -4 46
-10 3 -5 17 -10 30 -10 13 0 27 -4 30 -10 3 -5 25 -10 48 -10 31 0 47 -5 57
-20 8 -11 20 -20 28 -20 7 0 52 -39 100 -88 48 -48 103 -99 122 -112 19 -14
52 -42 74 -62 48 -48 102 -53 141 -13 l25 24 0 336 c0 217 4 335 10 335 6 0
10 18 10 39 0 22 5 43 10 46 6 3 10 22 10 41 0 19 5 34 10 34 6 0 10 15 10 34
0 19 5 38 10 41 6 3 10 21 10 40 0 19 5 37 10 40 6 3 10 21 10 40 0 19 4 37
10 40 5 3 10 19 10 35 0 16 4 32 10 35 5 3 10 22 10 41 0 19 5 34 10 34 6 0
10 18 10 40 0 22 5 40 10 40 6 0 10 13 10 29 0 17 4 33 10 36 6 3 10 24 10 45
0 21 5 42 10 45 6 3 10 17 10 30 0 13 5 27 10 30 6 3 10 21 10 40 0 19 5 37
10 40 6 3 10 24 10 45 0 21 5 42 10 45 6 3 10 19 10 35 0 16 5 32 10 35 6 3
10 19 10 35 0 16 5 32 10 35 6 3 10 21 10 40 0 19 5 37 10 40 6 3 10 30 10 59
0 61 -27 96 -73 96 -24 0 -27 4 -27 33 0 36 -37 87 -64 87 -9 0 -16 5 -16 10
0 6 -13 10 -29 10 -17 0 -33 5 -36 10 -3 6 -22 10 -41 10 -19 0 -34 5 -34 10
0 6 -18 10 -40 10 -22 0 -40 5 -40 10 0 6 -18 10 -40 10 -22 0 -40 5 -40 10 0
6 -13 10 -30 10 -16 0 -30 5 -30 10 0 6 -18 10 -40 10 -22 0 -40 5 -40 10 0 6
-18 10 -40 10 -22 0 -40 5 -40 10 0 6 -18 10 -40 10 -22 0 -40 5 -40 10 0 6
-15 10 -34 10 -19 0 -38 5 -41 10 -3 6 -24 10 -46 10 -21 0 -39 5 -39 10 0 6
-13 10 -29 10 -17 0 -33 5 -36 10 -3 6 -22 10 -41 10 -19 0 -34 5 -34 10 0 6
-22 10 -50 10 -27 0 -50 5 -50 10 0 6 -9 10 -19 10 -11 0 -23 5 -26 10 -3 6
-26 10 -51 10 -24 0 -44 5 -44 10 0 6 -13 10 -29 10 -17 0 -33 5 -36 10 -3 6
-26 10 -51 10 -24 0 -44 5 -44 10 0 6 -18 10 -40 10 -22 0 -40 5 -40 10 0 6
-15 10 -34 10 -19 0 -38 5 -41 10 -3 6 -19 10 -35 10 -16 0 -32 5 -35 10 -3 6
-43 10 -88 9 -73 0 -84 -3 -104 -24z m276 -111 c97 -26 205 -52 241 -60 36 -7
94 -22 130 -33 36 -11 130 -36 210 -55 147 -36 327 -83 500 -131 52 -14 145
-39 205 -54 80 -20 111 -33 113 -44 2 -10 -1 -17 -7 -17 -5 0 -45 -22 -89 -49
-44 -27 -83 -50 -88 -52 -10 -4 -251 -147 -508 -302 l-148 -89 -47 10 c-25 6
-74 18 -109 27 -34 9 -68 15 -75 12 -12 -5 -24 -37 -49 -132 -27 -104 -17 -93
-196 -200 -185 -111 -236 -137 -301 -156 -28 -8 -66 -33 -100 -65 -56 -50
-265 -184 -290 -184 -7 0 -10 7 -7 18 2 9 14 53 25 97 37 148 90 359 131 520
39 154 52 204 119 455 17 63 49 187 71 275 36 141 52 199 65 243 6 17 11 17
204 -34z m1515 -551 c-7 -27 -20 -75 -29 -108 -26 -96 -66 -247 -75 -285 -5
-19 -14 -53 -20 -75 -6 -22 -15 -56 -20 -75 -5 -19 -17 -69 -29 -110 -11 -41
-33 -128 -50 -192 -17 -65 -45 -171 -63 -235 l-32 -118 -3 -328 c-2 -188 -7
-327 -12 -325 -5 2 -29 21 -53 43 -47 44 -241 220 -270 246 -31 27 -56 35
-318 99 -216 53 -260 66 -285 90 -16 15 -51 41 -77 59 -52 35 -56 42 -33 61 9
7 22 27 29 44 59 130 41 247 -54 350 -23 25 -40 50 -38 55 1 6 53 40 113 76
123 74 107 72 263 30 88 -23 106 -26 117 -14 7 8 25 61 40 119 15 58 31 112
36 121 10 19 33 34 329 209 124 74 295 175 380 226 85 51 157 91 161 88 3 -2
0 -25 -7 -51z m-1109 -403 c3 -5 24 -10 45 -10 21 0 42 -4 45 -10 3 -5 19 -10
36 -10 22 0 29 -5 29 -20 0 -11 -4 -20 -10 -20 -5 0 -10 -15 -10 -34 0 -19 -4
-38 -10 -41 -5 -3 -10 -19 -10 -36 0 -22 -5 -29 -19 -29 -11 0 -23 5 -26 10
-3 6 -21 10 -40 10 -19 0 -37 5 -40 10 -3 6 -17 10 -31 10 -17 0 -24 5 -24 19
0 11 5 23 10 26 6 3 10 22 10 41 0 19 5 34 10 34 6 0 10 14 10 30 0 29 13 40
25 20z m-410 -483 c21 -12 53 -41 69 -65 26 -37 30 -51 30 -110 0 -69 -11 -99
-48 -138 -42 -44 -88 -64 -149 -64 -93 0 -157 43 -193 129 -16 39 -19 117 -4
126 6 3 10 13 10 22 0 26 48 81 88 103 53 28 145 27 197 -3z m18 -471 c70 -18
126 -47 158 -83 41 -44 77 -114 84 -165 6 -38 4 -49 -13 -66 -82 -82 -553 -89
-682 -11 -37 23 -39 54 -10 132 50 133 166 204 337 206 40 1 96 -5 126 -13z"/>
</g>
</svg>
